:SAMPLES-PER-SECOND 30
:FULLY-SPECIFIED
:DEGREES
16
root  78.2371 40.2686 -0.717122 -167.722 -87.4127 163.38
RightUpLeg  2.22958 -7.95888 -5.91607
RightLeg  8.52598 3.87525 1.91803
RightFoot  -5.577 -0.056282 0.361006
RightToes  8.73114e-010 0 -3.6325e-017
Spine  1.85763 -0.37752 3.52303
Spine1  9.8138 0.230676 -2.65558
HEad  -3.90659 3.08447 -2.68004
LeftShoulder1  3.64682 -7.00029 -28.5949
LeftArm  -22.0028 18.0913 -10.0788
LeftForeArm  24.9869 -30.6791 -5.30196
LeftHand  -0.244104 0.0205437 5.32207
RightShoulder  2.53425 5.22053 22.8154
RightArm  -15.341 -6.75137 7.28824
RightForeArm  -5.26492 26.1539 5.87536
RightHand  -1.0669 2.13369 -16.5738
LeftUpLeg  6.56924 6.23602 4.51126
LeftLeg  3.7616 7.81762 -3.54205
LeftFoot  -5.54332 0.138443 -2.07701
LeftToes  -7.64008e-011 1.13257e-010 -2.15718e-012
17
root  78.1729 40.258 -0.816624 -165.702 -87.5108 161.137
RightUpLeg  2.5087 -7.96195 -5.86008
RightLeg  8.7497 3.77287 1.8649
RightFoot  -5.91464 -0.0575295 0.328445
RightToes  8.73114e-010 0 -3.6325e-017
Spine  1.73856 -0.468426 3.86038
Spine1  10.9046 0.204876 -2.81927
HEad  -3.66905 3.11339 -2.98063
LeftShoulder1  4.45376 -7.87809 -33.0975
LeftArm  -19.5184 16.9505 -11.7189
LeftForeArm  25.7212 -30.2092 -5.1545
LeftHand  -0.244104 0.0205437 5.32207
RightShoulder  3.10008 6.11945 26.1574
RightArm  -12.1281 -7.79048 9.85456
RightForeArm  -2.85434 27.0513 5.97452
RightHand  -0.888477 1.26756 -15.5741
LeftUpLeg  6.93922 6.22706 4.6196
LeftLeg  3.69995 7.57714 -3.49107
LeftFoot  -5.64565 0.153246 -2.39812
LeftToes  -7.64008e-011 1.13257e-010 -2.15718e-012
18
root  78.0731 40.252 -0.93858 -163.316 -87.6251 158.638
RightUpLeg  2.78355 -7.90895 -5.74906
RightLeg  8.87821 3.57073 1.79976
RightFoot  -6.30882 -0.0553755 0.244826
RightToes  8.73114e-010 0 -3.6325e-017
Spine  0.738262 -0.62321 4.32413
Spine1  13.0399 0.14372 -3.12494
HEad  -3.62358 3.18088 -3.29943
LeftShoulder1  5.17635 -8.56398 -36.734
LeftArm  -16.8507 15.1864 -14.6693
LeftForeArm  25.2479 -27.6582 -4.59463
LeftHand  -0.244104 0.0205437 5.32207
RightShoulder  3.67975 7.0141 28.983
RightArm  -8.88574 -8.14464 13.5351
RightForeArm  -0.558802 25.616 5.51128
RightHand  -0.717286 0.786815 -13.5593
LeftUpLeg  7.26217 6.26246 4.79159
LeftLeg  3.6094 7.34087 -3.47511
LeftFoot  -5.64451 0.170695 -2.74909
LeftToes  -7.64008e-011 1.13257e-010 -2.15718e-012
19
root  77.9371 40.2381 -1.08488 -158.644 -87.8639 154.046
RightUpLeg  2.92075 -7.94267 -5.63269
RightLeg  9.07271 3.27427 1.7649
RightFoot  -6.91827 -0.0529785 0.170816
RightToes  8.73114e-010 0 -3.6325e-017
Spine  0.448933 -0.650568 4.65795
Spine1  13.3458 0.155928 -3.2676
HEad  -2.55131 2.9268 -3.45207
LeftShoulder1  6.33278 -9.92662 -40.839
LeftArm  -13.4008 14.2715 -16.7495
LeftForeArm  22.7863 -24.0999 -3.98397
LeftHand  -0.244104 0.0205437 5.32207
RightShoulder  4.42604 7.91944 32.8118
RightArm  -4.63384 -8.92753 16.1335
RightForeArm  1.14109 22.9534 4.94328
RightHand  -0.544538 0.256938 -11.258
LeftUpLeg  7.36224 6.24779 4.92504
LeftLeg  3.61284 7.06941 -3.39583
LeftFoot  -5.78347 0.175183 -2.89279
LeftToes  -7.64008e-011 1.13257e-010 -2.15718e-012
20
root  77.7708 40.2095 -1.25747 -153.718 -88.0604 149.326
RightUpLeg  2.90323 -7.99918 -5.45457
RightLeg  9.43001 3.01971 1.73114
RightFoot  -7.74493 -0.0582598 0.235466
RightToes  8.73114e-010 0 -3.6325e-017
Spine  -0.0588861 -0.72549 4.86155
Spine1  13.8938 0.03194 -3.11422
HEad  -1.65529 2.9361 -3.63422
LeftShoulder1  7.50167 -11.0797 -44.8014
LeftArm  -11.1446 13.8662 -18.7886
LeftForeArm  20.6797 -20.9323 -3.71365
LeftHand  -0.244104 0.0205437 5.32207
RightShoulder  5.09127 8.61774 36.0201
RightArm  -2.4533 -9.63137 19.5072
RightForeArm  2.7544 19.7667 4.96198
RightHand  -0.391348 -0.556251 -9.37891
LeftUpLeg  7.33478 6.18004 5.05749
LeftLeg  3.70834 6.8011 -3.23129
LeftFoot  -6.20559 0.180833 -3.20606
LeftToes  -7.64008e-011 1.13257e-010 -2.15718e-012
21
root  77.5777 40.1703 -1.46296 -152.666 -87.9629 148.422
RightUpLeg  2.82659 -7.86855 -5.14502
RightLeg  10.0008 2.90696 1.58559
RightFoot  -8.68653 -0.0676642 0.372839
RightToes  8.73114e-010 0 -3.6325e-017
Spine  -0.417179 -0.779757 4.93447
Spine1  14.5159 -0.120658 -2.78072
HEad  -1.1452 3.21669 -3.85418
LeftShoulder1  8.49218 -11.8479 -48.3032
LeftArm  -10.9137 14.17 -20.8328
LeftForeArm  20.2051 -19.0432 -3.81458
LeftHand  -0.244104 0.0205437 5.32207
RightShoulder  5.71501 9.20278 38.9008
RightArm  -4.0837 -10.6031 23.0838
RightForeArm  5.37319 16.7993 5.4441
RightHand  -0.28192 -1.10122 -7.57605
LeftUpLeg  7.39558 6.20254 5.28664
LeftLeg  3.97035 6.76608 -3.07215
LeftFoot  -6.68731 0.201188 -3.96247
LeftToes  -7.64008e-011 1.13257e-010 -2.15718e-012
22
root  77.3494 40.1154 -1.7046 -155.329 -87.6107 151.099
RightUpLeg  2.76684 -7.49212 -4.70215
RightLeg  10.8188 2.87754 1.32785
RightFoot  -9.73913 -0.0717215 0.403259
RightToes  8.73114e-010 0 -3.6325e-017
Spine  -0.907983 -0.981668 4.80743
Spine1  15.8761 -0.485188 -2.24632
HEad  -1.63527 3.96563 -4.36277
LeftShoulder1  8.87344 -11.8644 -50.3956
LeftArm  -12.8863 14.9557 -24.1133
LeftForeArm  20.1381 -18.4595 -3.75305
LeftHand  -0.244104 0.0205437 5.32207
RightShoulder  6.21825 9.71253 40.8612
RightArm  -8.54101 -11.3589 27.5157
RightForeArm  9.36425 13.9378 5.58739
RightHand  -0.254525 -0.743102 -6.30976
LeftUpLeg  7.49501 6.43983 5.61869
LeftLeg  4.72435 6.9357 -2.84924
LeftFoot  -7.24343 0.208647 -4.60524
LeftToes  -7.64008e-011 1.13257e-010 -2.15718e-012
23
root  77.0798 40.0115 -1.96161 -160.052 -87.3275 155.853
RightUpLeg  2.56975 -7.09595 -4.11392
RightLeg  12.0442 2.88299 1.14514
RightFoot  -11.0466 -0.075646 0.289751
RightToes  8.73114e-010 0 -3.6325e-017
Spine  -1.36335 -1.08212 5.03004
Spine1  16.9726 -0.654095 -1.89854
HEad  -2.3428 4.29806 -4.88786
LeftShoulder1  9.10186 -11.9123 -51.5129
LeftArm  -15.5873 16.2513 -27.5475
LeftForeArm  19.3041 -17.9791 -3.60049
LeftHand  -0.244104 0.0205437 5.32207
RightShoulder  6.66253 10.005 42.9819
RightArm  -12.1936 -12.3064 31.4873
RightForeArm  9.62401 11.1384 5.61424
RightHand  -0.274694 -0.597944 -6.62742
LeftUpLeg  7.09891 7.13647 6.01254
LeftLeg  6.6304 6.49045 -2.10867
LeftFoot  -8.49806 0.173479 -4.9479
LeftToes  -7.64008e-011 1.13257e-010 -2.15718e-012
24
root  76.7912 39.8339 -2.19196 -168.069 -87.3705 164.065
RightUpLeg  2.05333 -7.05458 -3.39867
RightLeg  13.7911 3.01004 1.2169
RightFoot  -12.617 -0.0842378 0.109897
RightToes  8.73114e-010 0 -3.6325e-017
Spine  -1.76215 -1.21189 5.95784
Spine1  17.7037 -0.812708 -1.52379
HEad  -3.0368 4.31559 -5.78642
LeftShoulder1  9.26492 -11.9951 -52.1385
LeftArm  -17.4652 17.3693 -30.5037
LeftForeArm  17.4831 -16.6746 -3.5117
LeftHand  -0.244104 0.0205437 5.32207
RightShoulder  6.95303 10.2154 44.2329
RightArm  -13.4957 -13.59 35.104
RightForeArm  -0.886977 8.77591 6.36309
RightHand  -0.257009 -2.11065 -9.08532
LeftUpLeg  5.50635 8.51015 6.3826
LeftLeg  10.441 4.83653 -0.420875
LeftFoot  -10.5099 0.103629 -6.00244
LeftToes  -7.64008e-011 1.13257e-010 -2.15718e-012
25
root  76.5235 39.6169 -2.3668 178.956 -87.7958 177.239
RightUpLeg  1.506 -7.5735 -2.69123
RightLeg  15.6958 3.20896 1.51328
RightFoot  -14.1112 -0.0985346 -0.124195
RightToes  8.73114e-010 0 -3.6325e-017
Spine  -1.6021 -1.34067 7.62115
Spine1  17.8202 -0.864788 -1.3002
HEad  -3.52817 3.899 -6.88998
LeftShoulder1  9.5207 -12.2733 -52.6219
LeftArm  -17.5273 17.7695 -32.1153
LeftForeArm  15.1081 -14.2067 -3.62832
LeftHand  -0.244104 0.0205437 5.32207
RightShoulder  7.12631 10.4153 44.7054
RightArm  -13.2034 -15.6089 37.1108
RightForeArm  -18.9557 8.58954 7.73711
RightHand  -0.180259 -3.96544 -13.2374
LeftUpLeg  2.4445 8.44763 6.52366
LeftLeg  16.5788 4.64927 1.88464
LeftFoot  -11.7967 0.0422412 -7.97651
LeftToes  -7.64008e-011 1.13257e-010 -2.15718e-012
26
root  76.2898 39.4284 -2.49977 158.541 -88.5102 -162.463
RightUpLeg  1.46244 -8.47684 -2.2393
RightLeg  17.2276 3.23611 1.8212
RightFoot  -15.2 -0.116935 -0.420253
RightToes  8.73114e-010 0 -3.6325e-017
Spine  -0.607259 -1.50069 9.32939
Spine1  17.5195 -0.785773 -1.43448
HEad  -4.15896 3.05537 -7.52796
LeftShoulder1  9.84367 -12.7345 -52.857
LeftArm  -16.628 17.4325 -32.239
LeftForeArm  13.5066 -11.3474 -3.93437
LeftHand  -0.244104 0.0205437 5.32207
RightShoulder  7.25405 10.5668 45.0287
RightArm  -11.8842 -17.5294 36.6067
RightForeArm  -25.4289 10.1919 8.36159
RightHand  -0.199975 -3.86686 -14.3271
LeftUpLeg  -1.60808 5.20207 6.409
LeftLeg  24.7539 8.21444 4.48386
LeftFoot  -10.735 0.109759 -8.93743
LeftToes  -7.64008e-011 1.13257e-010 -2.15718e-012
27
root  76.0518 39.3034 -2.62123 121.215 -89.1841 -125.539
RightUpLeg  1.96619 -9.29209 -2.12006
RightLeg  18.2073 2.99963 1.94503
RightFoot  -15.886 -0.134855 -0.692138
RightToes  8.73114e-010 0 -3.6325e-017
Spine  0.850225 -1.61322 10.5977
Spine1  17.0068 -0.456717 -2.11364
HEad  -5.09164 1.5851 -6.7432
LeftShoulder1  10.2352 -13.3976 -52.81
LeftArm  -15.4233 16.9359 -31.054
LeftForeArm  13.9721 -9.25249 -4.19051
LeftHand  -0.244104 0.0205437 5.32207
RightShoulder  7.46151 10.6429 46.1061
RightArm  -8.56688 -17.8546 33.6277
RightForeArm  -12.5133 10.6125 8.05658
RightHand  -0.239994 -2.79992 -10.5149
LeftUpLeg  -5.9308 3.00234 5.93915
LeftLeg  33.4011 10.4507 7.66226
LeftFoot  -7.88043 0.265258 -7.39035
LeftToes  -7.64008e-011 1.13257e-010 -2.15718e-012
28
root  75.7537 39.238 -2.74013 79.9105 -89.5148 -84.4663
RightUpLeg  2.50656 -9.58252 -2.23799
RightLeg  18.7573 2.70063 1.88867
RightFoot  -16.3794 -0.14749 -0.835466
RightToes  8.73114e-010 0 -3.6325e-017
Spine  0.980194 -1.97403 11.0143
Spine1  18.5477 -0.615769 -2.43592
HEad  -7.22806 1.05452 -5.62398
LeftShoulder1  10.1431 -13.4198 -52.2827
LeftArm  -14.7533 15.7495 -30.3854
LeftForeArm  16.6477 -8.74992 -4.27087
LeftHand  -0.244104 0.0205437 5.32207
RightShoulder  7.68821 11.1966 45.7032
RightArm  -4.25017 -15.1561 31.5085
RightForeArm  4.88679 8.11216 8.05307
RightHand  -0.308729 -1.31378 -8.62198
LeftUpLeg  -10.0848 1.81117 4.96741
LeftLeg  40.5482 10.2261 9.57478
LeftFoot  -5.70808 0.282275 -4.96384
LeftToes  -7.64008e-011 1.13257e-010 -2.15718e-012
